# xmcd
#
# Track frame offsets:
#	150
#	22179
#	44304
#	64779
#	88611
#	130203
#	145351
#	169330
#	193448
#	209991
#	241503
#	262829
#	298631
#	320729
#
# Disc length: 4526 seconds
#
# Revision: 0
# Processed by: cddbd v1.5.2PL0 Copyright (c) Steve Scherf et al.
# Submitted via: EasyCDDAExtractor 10.2.0.1
#
DISCID=df11ac0e
DTITLE=Mark Knopfler - Real Live Roadrunning (With Emmylou Harris)
DYEAR=2006
DGENRE=Country
TTITLE0=Right Now
TTITLE1=Red Staggerwing
TTITLE2=Red Dirt Girl
TTITLE3=Done With Bonaparte
TTITLE4=Romeo And Juliet
TTITLE5=All That Matters ( Bonus Track)
TTITLE6=This Is Us
TTITLE7=All The Roadrunning
TTITLE8=Boulder To Birmingham
TTITLE9=Speedway To Nazareth
TTITLE10=So Far Away
TTITLE11=Our Shangri-La
TTITLE12=If This Is Goodbye
TTITLE13=Why Worry
EXTD=
EXTT0=
EXTT1=
EXTT2=
EXTT3=
EXTT4=
EXTT5=
EXTT6=
EXTT7=
EXTT8=
EXTT9=
EXTT10=
EXTT11=
EXTT12=
EXTT13=
PLAYORDER=
